<svg xmlns="http://www.w3.org/2000/svg" xmlns:xlink="http://www.w3.org/1999/xlink" width="500" zoomAndPan="magnify" viewBox="0 0 375 374.999991" height="500" preserveAspectRatio="xMidYMid meet" version="1.0"><defs><g/><clipPath id="bd9314a5d7"><rect x="0" width="134" y="0" height="58"/></clipPath><clipPath id="3c76982909"><rect x="0" width="362" y="0" height="19"/></clipPath><clipPath id="8ef664bb0a"><path d="M 6 148.839844 L 64 148.839844 L 64 195 L 6 195 Z M 6 148.839844 " clip-rule="nonzero"/></clipPath><clipPath id="445f0417c8"><path d="M 5.007812 181 L 65.738281 181 L 65.738281 198.339844 L 5.007812 198.339844 Z M 5.007812 181 " clip-rule="nonzero"/></clipPath><clipPath id="469de7400c"><path d="M 241 155 L 298 155 L 298 201.199219 L 241 201.199219 Z M 241 155 " clip-rule="nonzero"/></clipPath><clipPath id="442bd6f04b"><path d="M 239.078125 151.699219 L 299.808594 151.699219 L 299.808594 169 L 239.078125 169 Z M 239.078125 151.699219 " clip-rule="nonzero"/></clipPath><clipPath id="c982adb031"><rect x="0" width="65" y="0" height="59"/></clipPath></defs><g transform="matrix(1, 0, 0, 1, 72, 147)"><g clip-path="url(#bd9314a5d7)"><g fill="#282829" fill-opacity="1"><g transform="translate(1.064626, 45.157668)"><g><path d="M 4.40625 -32.796875 L 10.5 -32.796875 L 10.5 -5.15625 L 27.640625 -5.15625 L 27.640625 0 L 4.40625 0 Z M 4.40625 -32.796875 "/></g></g></g><g fill="#282829" fill-opacity="1"><g transform="translate(38.493538, 45.157668)"><g><path d="M 26.796875 -16.765625 L 32.5625 -16.765625 L 32.5625 -3.703125 C 30.875 -2.359375 28.90625 -1.328125 26.65625 -0.609375 C 24.40625 0.109375 22.09375 0.46875 19.71875 0.46875 C 16.375 0.46875 13.359375 -0.253906 10.671875 -1.703125 C 7.992188 -3.160156 5.890625 -5.171875 4.359375 -7.734375 C 2.828125 -10.296875 2.0625 -13.179688 2.0625 -16.390625 C 2.0625 -19.609375 2.828125 -22.5 4.359375 -25.0625 C 5.890625 -27.625 8.003906 -29.628906 10.703125 -31.078125 C 13.398438 -32.535156 16.4375 -33.265625 19.8125 -33.265625 C 22.5625 -33.265625 25.0625 -32.8125 27.3125 -31.90625 C 29.5625 -31 31.453125 -29.671875 32.984375 -27.921875 L 29.140625 -24.171875 C 26.640625 -26.671875 23.625 -27.921875 20.09375 -27.921875 C 17.78125 -27.921875 15.726562 -27.4375 13.9375 -26.46875 C 12.144531 -25.5 10.738281 -24.140625 9.71875 -22.390625 C 8.707031 -20.640625 8.203125 -18.640625 8.203125 -16.390625 C 8.203125 -14.203125 8.707031 -12.234375 9.71875 -10.484375 C 10.738281 -8.742188 12.144531 -7.375 13.9375 -6.375 C 15.726562 -5.375 17.765625 -4.875 20.046875 -4.875 C 22.609375 -4.875 24.859375 -5.4375 26.796875 -6.5625 Z M 26.796875 -16.765625 "/></g></g></g><g fill="#282829" fill-opacity="1"><g transform="translate(84.025907, 45.157668)"><g><path d="M 19.71875 0.46875 C 16.375 0.46875 13.359375 -0.253906 10.671875 -1.703125 C 7.992188 -3.160156 5.890625 -5.175781 4.359375 -7.75 C 2.828125 -10.332031 2.0625 -13.210938 2.0625 -16.390625 C 2.0625 -19.578125 2.828125 -22.457031 4.359375 -25.03125 C 5.890625 -27.613281 7.992188 -29.628906 10.671875 -31.078125 C 13.359375 -32.535156 16.375 -33.265625 19.71875 -33.265625 C 23.0625 -33.265625 26.078125 -32.535156 28.765625 -31.078125 C 31.453125 -29.628906 33.554688 -27.625 35.078125 -25.0625 C 36.609375 -22.5 37.375 -19.609375 37.375 -16.390625 C 37.375 -13.179688 36.609375 -10.296875 35.078125 -7.734375 C 33.554688 -5.171875 31.453125 -3.160156 28.765625 -1.703125 C 26.078125 -0.253906 23.0625 0.46875 19.71875 0.46875 Z M 19.71875 -4.875 C 21.90625 -4.875 23.875 -5.363281 25.625 -6.34375 C 27.375 -7.332031 28.75 -8.707031 29.75 -10.46875 C 30.75 -12.226562 31.25 -14.203125 31.25 -16.390625 C 31.25 -18.578125 30.75 -20.550781 29.75 -22.3125 C 28.75 -24.082031 27.375 -25.457031 25.625 -26.4375 C 23.875 -27.425781 21.90625 -27.921875 19.71875 -27.921875 C 17.53125 -27.921875 15.5625 -27.425781 13.8125 -26.4375 C 12.070312 -25.457031 10.703125 -24.082031 9.703125 -22.3125 C 8.703125 -20.550781 8.203125 -18.578125 8.203125 -16.390625 C 8.203125 -14.203125 8.703125 -12.226562 9.703125 -10.46875 C 10.703125 -8.707031 12.070312 -7.332031 13.8125 -6.34375 C 15.5625 -5.363281 17.53125 -4.875 19.71875 -4.875 Z M 19.71875 -4.875 "/></g></g></g></g></g><g transform="matrix(1, 0, 0, 1, 13, 216)"><g clip-path="url(#3c76982909)"><g fill="#cb6ce6" fill-opacity="1"><g transform="translate(2.296694, 13.67505)"><g><path d="M 8.015625 -2.375 L 2.890625 -2.375 L 1.890625 0 L -0.078125 0 L 4.53125 -10.234375 L 6.40625 -10.234375 L 11.03125 0 L 9.03125 0 Z M 7.390625 -3.859375 L 5.453125 -8.34375 L 3.546875 -3.859375 Z M 7.390625 -3.859375 "/></g></g></g><g fill="#cb6ce6" fill-opacity="1"><g transform="translate(21.761208, 13.67505)"><g><path d="M 1.375 -10.234375 L 3.28125 -10.234375 L 3.28125 -1.609375 L 8.625 -1.609375 L 8.625 0 L 1.375 0 Z M 1.375 -10.234375 "/></g></g></g><g fill="#cb6ce6" fill-opacity="1"><g transform="translate(39.034596, 13.67505)"><g><path d="M 8.359375 -5.234375 L 10.171875 -5.234375 L 10.171875 -1.15625 C 9.640625 -0.738281 9.019531 -0.414062 8.3125 -0.1875 C 7.613281 0.03125 6.894531 0.140625 6.15625 0.140625 C 5.113281 0.140625 4.171875 -0.0820312 3.328125 -0.53125 C 2.492188 -0.988281 1.835938 -1.613281 1.359375 -2.40625 C 0.878906 -3.207031 0.640625 -4.113281 0.640625 -5.125 C 0.640625 -6.125 0.878906 -7.023438 1.359375 -7.828125 C 1.835938 -8.628906 2.5 -9.253906 3.34375 -9.703125 C 4.1875 -10.160156 5.132812 -10.390625 6.1875 -10.390625 C 7.039062 -10.390625 7.816406 -10.242188 8.515625 -9.953125 C 9.222656 -9.671875 9.816406 -9.257812 10.296875 -8.71875 L 9.09375 -7.546875 C 8.3125 -8.328125 7.375 -8.71875 6.28125 -8.71875 C 5.550781 -8.71875 4.90625 -8.566406 4.34375 -8.265625 C 3.789062 -7.960938 3.351562 -7.535156 3.03125 -6.984375 C 2.71875 -6.441406 2.5625 -5.820312 2.5625 -5.125 C 2.5625 -4.4375 2.71875 -3.816406 3.03125 -3.265625 C 3.351562 -2.722656 3.789062 -2.296875 4.34375 -1.984375 C 4.90625 -1.671875 5.546875 -1.515625 6.265625 -1.515625 C 7.054688 -1.515625 7.753906 -1.691406 8.359375 -2.046875 Z M 8.359375 -5.234375 "/></g></g></g><g fill="#cb6ce6" fill-opacity="1"><g transform="translate(58.835093, 13.67505)"><g><path d="M 6.15625 0.140625 C 5.113281 0.140625 4.171875 -0.0820312 3.328125 -0.53125 C 2.492188 -0.988281 1.835938 -1.617188 1.359375 -2.421875 C 0.878906 -3.222656 0.640625 -4.125 0.640625 -5.125 C 0.640625 -6.113281 0.878906 -7.007812 1.359375 -7.8125 C 1.835938 -8.625 2.492188 -9.253906 3.328125 -9.703125 C 4.171875 -10.160156 5.113281 -10.390625 6.15625 -10.390625 C 7.195312 -10.390625 8.132812 -10.160156 8.96875 -9.703125 C 9.8125 -9.253906 10.472656 -8.628906 10.953125 -7.828125 C 11.429688 -7.023438 11.671875 -6.125 11.671875 -5.125 C 11.671875 -4.113281 11.429688 -3.207031 10.953125 -2.40625 C 10.472656 -1.613281 9.8125 -0.988281 8.96875 -0.53125 C 8.132812 -0.0820312 7.195312 0.140625 6.15625 0.140625 Z M 6.15625 -1.515625 C 6.84375 -1.515625 7.457031 -1.664062 8 -1.96875 C 8.539062 -2.28125 8.96875 -2.710938 9.28125 -3.265625 C 9.59375 -3.816406 9.75 -4.4375 9.75 -5.125 C 9.75 -5.800781 9.59375 -6.414062 9.28125 -6.96875 C 8.96875 -7.519531 8.539062 -7.945312 8 -8.25 C 7.457031 -8.5625 6.84375 -8.71875 6.15625 -8.71875 C 5.476562 -8.71875 4.863281 -8.5625 4.3125 -8.25 C 3.769531 -7.945312 3.34375 -7.519531 3.03125 -6.96875 C 2.71875 -6.414062 2.5625 -5.800781 2.5625 -5.125 C 2.5625 -4.4375 2.71875 -3.816406 3.03125 -3.265625 C 3.34375 -2.710938 3.769531 -2.28125 4.3125 -1.96875 C 4.863281 -1.664062 5.476562 -1.515625 6.15625 -1.515625 Z M 6.15625 -1.515625 "/></g></g></g><g fill="#cb6ce6" fill-opacity="1"><g transform="translate(79.658101, 13.67505)"><g><path d="M 8.078125 0 L 5.984375 -3 C 5.890625 -2.988281 5.757812 -2.984375 5.59375 -2.984375 L 3.28125 -2.984375 L 3.28125 0 L 1.375 0 L 1.375 -10.234375 L 5.59375 -10.234375 C 6.476562 -10.234375 7.25 -10.085938 7.90625 -9.796875 C 8.5625 -9.503906 9.0625 -9.082031 9.40625 -8.53125 C 9.757812 -7.988281 9.9375 -7.34375 9.9375 -6.59375 C 9.9375 -5.820312 9.75 -5.15625 9.375 -4.59375 C 9 -4.039062 8.460938 -3.628906 7.765625 -3.359375 L 10.125 0 Z M 8.03125 -6.59375 C 8.03125 -7.25 7.8125 -7.75 7.375 -8.09375 C 6.945312 -8.445312 6.320312 -8.625 5.5 -8.625 L 3.28125 -8.625 L 3.28125 -4.546875 L 5.5 -4.546875 C 6.320312 -4.546875 6.945312 -4.722656 7.375 -5.078125 C 7.8125 -5.429688 8.03125 -5.9375 8.03125 -6.59375 Z M 8.03125 -6.59375 "/></g></g></g><g fill="#cb6ce6" fill-opacity="1"><g transform="translate(98.859686, 13.67505)"><g><path d="M 1.375 -10.234375 L 3.28125 -10.234375 L 3.28125 0 L 1.375 0 Z M 1.375 -10.234375 "/></g></g></g><g fill="#cb6ce6" fill-opacity="1"><g transform="translate(112.042979, 13.67505)"><g><path d="M 3.453125 -8.625 L 0.0625 -8.625 L 0.0625 -10.234375 L 8.75 -10.234375 L 8.75 -8.625 L 5.359375 -8.625 L 5.359375 0 L 3.453125 0 Z M 3.453125 -8.625 "/></g></g></g><g fill="#cb6ce6" fill-opacity="1"><g transform="translate(129.360192, 13.67505)"><g><path d="M 10.46875 -10.234375 L 10.46875 0 L 8.5625 0 L 8.5625 -4.390625 L 3.28125 -4.390625 L 3.28125 0 L 1.375 0 L 1.375 -10.234375 L 3.28125 -10.234375 L 3.28125 -6.015625 L 8.5625 -6.015625 L 8.5625 -10.234375 Z M 10.46875 -10.234375 "/></g></g></g><g fill="#cb6ce6" fill-opacity="1"><g transform="translate(149.715761, 13.67505)"><g><path d="M 10.78125 0 L 10.765625 -6.78125 L 7.40625 -1.171875 L 6.546875 -1.171875 L 3.1875 -6.703125 L 3.1875 0 L 1.375 0 L 1.375 -10.234375 L 2.9375 -10.234375 L 7 -3.453125 L 11 -10.234375 L 12.5625 -10.234375 L 12.578125 0 Z M 10.78125 0 "/></g></g></g><g fill="#cb6ce6" fill-opacity="1"><g transform="translate(172.189421, 13.67505)"><g/></g></g><g fill="#cb6ce6" fill-opacity="1"><g transform="translate(184.744608, 13.67505)"><g><path d="M 10.734375 -10.234375 L 6.28125 0 L 4.40625 0 L -0.078125 -10.234375 L 1.984375 -10.234375 L 5.390625 -2.34375 L 8.828125 -10.234375 Z M 10.734375 -10.234375 "/></g></g></g><g fill="#cb6ce6" fill-opacity="1"><g transform="translate(203.916982, 13.67505)"><g><path d="M 1.375 -10.234375 L 3.28125 -10.234375 L 3.28125 0 L 1.375 0 Z M 1.375 -10.234375 "/></g></g></g><g fill="#cb6ce6" fill-opacity="1"><g transform="translate(217.100275, 13.67505)"><g><path d="M 4.546875 0.140625 C 3.753906 0.140625 2.988281 0.03125 2.25 -0.1875 C 1.519531 -0.414062 0.941406 -0.710938 0.515625 -1.078125 L 1.171875 -2.5625 C 1.585938 -2.226562 2.097656 -1.957031 2.703125 -1.75 C 3.316406 -1.539062 3.929688 -1.4375 4.546875 -1.4375 C 5.304688 -1.4375 5.875 -1.554688 6.25 -1.796875 C 6.625 -2.046875 6.8125 -2.367188 6.8125 -2.765625 C 6.8125 -3.054688 6.707031 -3.296875 6.5 -3.484375 C 6.289062 -3.671875 6.023438 -3.816406 5.703125 -3.921875 C 5.378906 -4.035156 4.941406 -4.160156 4.390625 -4.296875 C 3.609375 -4.484375 2.972656 -4.671875 2.484375 -4.859375 C 2.003906 -5.046875 1.59375 -5.332031 1.25 -5.71875 C 0.90625 -6.113281 0.734375 -6.648438 0.734375 -7.328125 C 0.734375 -7.890625 0.882812 -8.398438 1.1875 -8.859375 C 1.5 -9.328125 1.960938 -9.695312 2.578125 -9.96875 C 3.203125 -10.25 3.960938 -10.390625 4.859375 -10.390625 C 5.484375 -10.390625 6.097656 -10.3125 6.703125 -10.15625 C 7.304688 -10 7.828125 -9.773438 8.265625 -9.484375 L 7.65625 -8 C 7.207031 -8.257812 6.738281 -8.457031 6.25 -8.59375 C 5.769531 -8.726562 5.300781 -8.796875 4.84375 -8.796875 C 4.09375 -8.796875 3.535156 -8.671875 3.171875 -8.421875 C 2.804688 -8.171875 2.625 -7.835938 2.625 -7.421875 C 2.625 -7.117188 2.726562 -6.875 2.9375 -6.6875 C 3.144531 -6.507812 3.410156 -6.363281 3.734375 -6.25 C 4.054688 -6.144531 4.492188 -6.023438 5.046875 -5.890625 C 5.804688 -5.710938 6.429688 -5.53125 6.921875 -5.34375 C 7.410156 -5.15625 7.828125 -4.863281 8.171875 -4.46875 C 8.515625 -4.082031 8.6875 -3.554688 8.6875 -2.890625 C 8.6875 -2.328125 8.53125 -1.816406 8.21875 -1.359375 C 7.914062 -0.898438 7.453125 -0.535156 6.828125 -0.265625 C 6.203125 0.00390625 5.441406 0.140625 4.546875 0.140625 Z M 4.546875 0.140625 "/></g></g></g><g fill="#cb6ce6" fill-opacity="1"><g transform="translate(234.811892, 13.67505)"><g><path d="M 5.78125 0.140625 C 4.363281 0.140625 3.257812 -0.253906 2.46875 -1.046875 C 1.675781 -1.835938 1.28125 -2.972656 1.28125 -4.453125 L 1.28125 -10.234375 L 3.1875 -10.234375 L 3.1875 -4.53125 C 3.1875 -2.519531 4.054688 -1.515625 5.796875 -1.515625 C 7.515625 -1.515625 8.375 -2.519531 8.375 -4.53125 L 8.375 -10.234375 L 10.25 -10.234375 L 10.25 -4.453125 C 10.25 -2.972656 9.851562 -1.835938 9.0625 -1.046875 C 8.28125 -0.253906 7.1875 0.140625 5.78125 0.140625 Z M 5.78125 0.140625 "/></g></g></g><g fill="#cb6ce6" fill-opacity="1"><g transform="translate(254.860705, 13.67505)"><g><path d="M 8.015625 -2.375 L 2.890625 -2.375 L 1.890625 0 L -0.078125 0 L 4.53125 -10.234375 L 6.40625 -10.234375 L 11.03125 0 L 9.03125 0 Z M 7.390625 -3.859375 L 5.453125 -8.34375 L 3.546875 -3.859375 Z M 7.390625 -3.859375 "/></g></g></g><g fill="#cb6ce6" fill-opacity="1"><g transform="translate(274.32522, 13.67505)"><g><path d="M 1.375 -10.234375 L 3.28125 -10.234375 L 3.28125 -1.609375 L 8.625 -1.609375 L 8.625 0 L 1.375 0 Z M 1.375 -10.234375 "/></g></g></g><g fill="#cb6ce6" fill-opacity="1"><g transform="translate(291.598608, 13.67505)"><g><path d="M 1.375 -10.234375 L 3.28125 -10.234375 L 3.28125 0 L 1.375 0 Z M 1.375 -10.234375 "/></g></g></g><g fill="#cb6ce6" fill-opacity="1"><g transform="translate(304.781901, 13.67505)"><g><path d="M 4.546875 0.140625 C 3.753906 0.140625 2.988281 0.03125 2.25 -0.1875 C 1.519531 -0.414062 0.941406 -0.710938 0.515625 -1.078125 L 1.171875 -2.5625 C 1.585938 -2.226562 2.097656 -1.957031 2.703125 -1.75 C 3.316406 -1.539062 3.929688 -1.4375 4.546875 -1.4375 C 5.304688 -1.4375 5.875 -1.554688 6.25 -1.796875 C 6.625 -2.046875 6.8125 -2.367188 6.8125 -2.765625 C 6.8125 -3.054688 6.707031 -3.296875 6.5 -3.484375 C 6.289062 -3.671875 6.023438 -3.816406 5.703125 -3.921875 C 5.378906 -4.035156 4.941406 -4.160156 4.390625 -4.296875 C 3.609375 -4.484375 2.972656 -4.671875 2.484375 -4.859375 C 2.003906 -5.046875 1.59375 -5.332031 1.25 -5.71875 C 0.90625 -6.113281 0.734375 -6.648438 0.734375 -7.328125 C 0.734375 -7.890625 0.882812 -8.398438 1.1875 -8.859375 C 1.5 -9.328125 1.960938 -9.695312 2.578125 -9.96875 C 3.203125 -10.25 3.960938 -10.390625 4.859375 -10.390625 C 5.484375 -10.390625 6.097656 -10.3125 6.703125 -10.15625 C 7.304688 -10 7.828125 -9.773438 8.265625 -9.484375 L 7.65625 -8 C 7.207031 -8.257812 6.738281 -8.457031 6.25 -8.59375 C 5.769531 -8.726562 5.300781 -8.796875 4.84375 -8.796875 C 4.09375 -8.796875 3.535156 -8.671875 3.171875 -8.421875 C 2.804688 -8.171875 2.625 -7.835938 2.625 -7.421875 C 2.625 -7.117188 2.726562 -6.875 2.9375 -6.6875 C 3.144531 -6.507812 3.410156 -6.363281 3.734375 -6.25 C 4.054688 -6.144531 4.492188 -6.023438 5.046875 -5.890625 C 5.804688 -5.710938 6.429688 -5.53125 6.921875 -5.34375 C 7.410156 -5.15625 7.828125 -4.863281 8.171875 -4.46875 C 8.515625 -4.082031 8.6875 -3.554688 8.6875 -2.890625 C 8.6875 -2.328125 8.53125 -1.816406 8.21875 -1.359375 C 7.914062 -0.898438 7.453125 -0.535156 6.828125 -0.265625 C 6.203125 0.00390625 5.441406 0.140625 4.546875 0.140625 Z M 4.546875 0.140625 "/></g></g></g><g fill="#cb6ce6" fill-opacity="1"><g transform="translate(322.493501, 13.67505)"><g><path d="M 9.046875 -1.59375 L 9.046875 0 L 1.375 0 L 1.375 -10.234375 L 8.84375 -10.234375 L 8.84375 -8.640625 L 3.28125 -8.640625 L 3.28125 -5.984375 L 8.21875 -5.984375 L 8.21875 -4.421875 L 3.28125 -4.421875 L 3.28125 -1.59375 Z M 9.046875 -1.59375 "/></g></g></g><g fill="#cb6ce6" fill-opacity="1"><g transform="translate(340.804065, 13.67505)"><g><path d="M 8.078125 0 L 5.984375 -3 C 5.890625 -2.988281 5.757812 -2.984375 5.59375 -2.984375 L 3.28125 -2.984375 L 3.28125 0 L 1.375 0 L 1.375 -10.234375 L 5.59375 -10.234375 C 6.476562 -10.234375 7.25 -10.085938 7.90625 -9.796875 C 8.5625 -9.503906 9.0625 -9.082031 9.40625 -8.53125 C 9.757812 -7.988281 9.9375 -7.34375 9.9375 -6.59375 C 9.9375 -5.820312 9.75 -5.15625 9.375 -4.59375 C 9 -4.039062 8.460938 -3.628906 7.765625 -3.359375 L 10.125 0 Z M 8.03125 -6.59375 C 8.03125 -7.25 7.8125 -7.75 7.375 -8.09375 C 6.945312 -8.445312 6.320312 -8.625 5.5 -8.625 L 3.28125 -8.625 L 3.28125 -4.546875 L 5.5 -4.546875 C 6.320312 -4.546875 6.945312 -4.722656 7.375 -5.078125 C 7.8125 -5.429688 8.03125 -5.9375 8.03125 -6.59375 Z M 8.03125 -6.59375 "/></g></g></g></g></g><g clip-path="url(#8ef664bb0a)"><path fill="#282829" d="M 38.476562 153.992188 L 63.652344 194.964844 L 50.449219 187.558594 L 35.324219 162.949219 L 20.230469 187.558594 L 6.996094 194.964844 L 35.324219 148.839844 Z M 38.476562 153.992188 " fill-opacity="1" fill-rule="nonzero"/></g><g clip-path="url(#445f0417c8)"><path fill="#cb6ce6" d="M 52.425781 190.78125 L 35.324219 181.230469 L 18.21875 190.78125 L 5.019531 198.222656 L 18.257812 198.222656 L 35.324219 188.625 L 52.425781 198.222656 L 65.625 198.222656 Z M 52.425781 190.78125 " fill-opacity="1" fill-rule="nonzero"/></g><g clip-path="url(#469de7400c)"><path fill="#000000" d="M 266.34375 196.046875 L 241.164062 155.078125 L 254.367188 162.484375 L 269.492188 187.089844 L 284.585938 162.484375 L 297.820312 155.078125 L 269.492188 201.199219 Z M 266.34375 196.046875 " fill-opacity="1" fill-rule="nonzero"/></g><g clip-path="url(#442bd6f04b)"><path fill="#cb6ce6" d="M 252.390625 159.257812 L 269.492188 168.8125 L 286.597656 159.257812 L 299.796875 151.816406 L 286.5625 151.816406 L 269.492188 161.417969 L 252.390625 151.816406 L 239.191406 151.816406 Z M 252.390625 159.257812 " fill-opacity="1" fill-rule="nonzero"/></g><g transform="matrix(1, 0, 0, 1, 305, 147)"><g clip-path="url(#c982adb031)"><g fill="#282829" fill-opacity="1"><g transform="translate(0.623314, 46.243881)"><g><path d="M 4.40625 -32.796875 L 10.5 -32.796875 L 10.5 0 L 4.40625 0 Z M 4.40625 -32.796875 "/></g></g></g><g fill="#282829" fill-opacity="1"><g transform="translate(24.94183, 46.243881)"><g><path d="M 14.578125 0.46875 C 12.046875 0.46875 9.597656 0.109375 7.234375 -0.609375 C 4.878906 -1.328125 3.015625 -2.28125 1.640625 -3.46875 L 3.75 -8.203125 C 5.09375 -7.140625 6.738281 -6.269531 8.6875 -5.59375 C 10.644531 -4.925781 12.609375 -4.59375 14.578125 -4.59375 C 17.015625 -4.59375 18.832031 -4.984375 20.03125 -5.765625 C 21.238281 -6.546875 21.84375 -7.578125 21.84375 -8.859375 C 21.84375 -9.796875 21.503906 -10.566406 20.828125 -11.171875 C 20.160156 -11.785156 19.3125 -12.265625 18.28125 -12.609375 C 17.25 -12.953125 15.84375 -13.34375 14.0625 -13.78125 C 11.5625 -14.375 9.535156 -14.96875 7.984375 -15.5625 C 6.441406 -16.15625 5.113281 -17.082031 4 -18.34375 C 2.894531 -19.613281 2.34375 -21.320312 2.34375 -23.46875 C 2.34375 -25.28125 2.832031 -26.925781 3.8125 -28.40625 C 4.800781 -29.894531 6.285156 -31.078125 8.265625 -31.953125 C 10.253906 -32.828125 12.6875 -33.265625 15.5625 -33.265625 C 17.5625 -33.265625 19.523438 -33.015625 21.453125 -32.515625 C 23.390625 -32.015625 25.0625 -31.296875 26.46875 -30.359375 L 24.546875 -25.625 C 23.117188 -26.46875 21.625 -27.109375 20.0625 -27.546875 C 18.5 -27.984375 16.984375 -28.203125 15.515625 -28.203125 C 13.109375 -28.203125 11.316406 -27.796875 10.140625 -26.984375 C 8.972656 -26.171875 8.390625 -25.09375 8.390625 -23.75 C 8.390625 -22.820312 8.722656 -22.0625 9.390625 -21.46875 C 10.066406 -20.875 10.921875 -20.40625 11.953125 -20.0625 C 12.984375 -19.71875 14.390625 -19.328125 16.171875 -18.890625 C 18.609375 -18.328125 20.601562 -17.738281 22.15625 -17.125 C 23.71875 -16.519531 25.050781 -15.59375 26.15625 -14.34375 C 27.269531 -13.09375 27.828125 -11.40625 27.828125 -9.28125 C 27.828125 -7.46875 27.332031 -5.828125 26.34375 -4.359375 C 25.363281 -2.890625 23.875 -1.71875 21.875 -0.84375 C 19.882812 0.03125 17.453125 0.46875 14.578125 0.46875 Z M 14.578125 0.46875 "/></g></g></g></g></g></svg>