<svg xmlns="http://www.w3.org/2000/svg" xmlns:xlink="http://www.w3.org/1999/xlink" width="500" zoomAndPan="magnify" viewBox="0 0 375 374.999991" height="500" preserveAspectRatio="xMidYMid meet" version="1.0"><defs><clipPath id="b1eadbf185"><path d="M 12 54 L 363 54 L 363 340.222656 L 12 340.222656 Z M 12 54 " clip-rule="nonzero"/></clipPath><clipPath id="2cafc7de3d"><path d="M 0.125 34.972656 L 375 34.972656 L 375 140 L 0.125 140 Z M 0.125 34.972656 " clip-rule="nonzero"/></clipPath><clipPath id="0635af7b84"><path d="M 12 54 L 363 54 L 363 340.222656 L 12 340.222656 Z M 12 54 " clip-rule="nonzero"/></clipPath><clipPath id="4612d30a72"><path d="M 0.125 34.972656 L 375 34.972656 L 375 140 L 0.125 140 Z M 0.125 34.972656 " clip-rule="nonzero"/></clipPath></defs><g clip-path="url(#b1eadbf185)"><path fill="#751192" d="M 168.007812 308.359375 L 12.285156 54.941406 L 93.933594 100.75 L 187.503906 252.949219 L 280.847656 100.75 L 362.71875 54.941406 L 187.503906 340.222656 Z M 168.007812 308.359375 " fill-opacity="1" fill-rule="nonzero"/></g><g clip-path="url(#2cafc7de3d)"><path fill="#cb6ce6" d="M 81.710938 80.808594 L 187.503906 139.886719 L 293.292969 80.808594 L 374.941406 34.773438 L 293.066406 34.773438 L 187.503906 94.152344 L 81.710938 34.773438 L 0.0625 34.773438 Z M 81.710938 80.808594 " fill-opacity="1" fill-rule="nonzero"/></g><g clip-path="url(#0635af7b84)"><path fill="#751192" d="M 168.007812 308.359375 L 12.285156 54.941406 L 93.933594 100.75 L 187.503906 252.949219 L 280.847656 100.75 L 362.71875 54.941406 L 187.503906 340.222656 Z M 168.007812 308.359375 " fill-opacity="1" fill-rule="nonzero"/></g><g clip-path="url(#4612d30a72)"><path fill="#cb6ce6" d="M 81.710938 80.808594 L 187.503906 139.886719 L 293.292969 80.808594 L 374.941406 34.773438 L 293.066406 34.773438 L 187.503906 94.152344 L 81.710938 34.773438 L 0.0625 34.773438 Z M 81.710938 80.808594 " fill-opacity="1" fill-rule="nonzero"/></g></svg>